<svg width="143" height="46" viewBox="0 0 143 46" fill="none" xmlns="http://www.w3.org/2000/svg">
<path d="M12.2115 24.044C11.7348 24.5206 11.0446 24.9315 10.1242 25.3095C9.22023 25.6875 8.06976 25.8847 6.67275 25.8847C4.70051 25.8847 3.08985 25.2273 1.85719 23.8961C0.624543 22.5812 0 20.8555 0 18.7354V18.2259C0 16.04 0.608108 14.2485 1.84076 12.8844C3.05698 11.5038 4.6512 10.83 6.62345 10.83C7.77392 10.83 8.80935 11.0107 9.7626 11.3723C10.7159 11.7339 11.5047 12.227 12.1293 12.8515V15.7934H9.95982L9.54894 13.8376C9.28598 13.6075 8.9244 13.4267 8.49708 13.2953C8.05332 13.1638 7.56026 13.0816 6.98503 13.0816C5.70307 13.0816 4.71695 13.5582 3.99379 14.495C3.28707 15.4319 2.92549 16.6809 2.92549 18.2094V18.7354C2.92549 20.2145 3.27064 21.4143 3.97736 22.3018C4.66764 23.1893 5.6702 23.6331 6.98503 23.6331C7.5767 23.6331 8.05332 23.5838 8.4149 23.4852C8.77648 23.3866 9.07232 23.2715 9.26954 23.14V20.6583L7.18225 20.4939V18.4395H12.2115V24.044Z" fill="#383836"/>
<path d="M13.5263 23.9126L14.9398 23.6167V16.8783L13.3784 16.5824V14.8074H17.668L17.7995 16.4016C18.0461 15.8428 18.3748 15.3991 18.7857 15.0868C19.1801 14.7745 19.6567 14.6102 20.1827 14.6102C20.3306 14.6102 20.4949 14.6266 20.6757 14.643C20.8401 14.6595 20.988 14.6923 21.103 14.7252L20.7908 17.4042L19.591 17.3713C19.1637 17.3713 18.8021 17.4535 18.5227 17.6178C18.2433 17.7822 18.0296 18.0287 17.8817 18.3246V23.6003L19.2951 23.8961V25.6547H13.5428V23.9126H13.5263Z" fill="#383836"/>
<path d="M26.6088 25.8848C25.0474 25.8848 23.7819 25.3753 22.8451 24.3727C21.9083 23.3702 21.4316 22.0882 21.4316 20.5433V20.1488C21.4316 18.5382 21.8754 17.2069 22.7629 16.155C23.6504 15.1032 24.8338 14.5937 26.3294 14.5937C27.7921 14.5937 28.9262 15.0374 29.7479 15.9249C30.5533 16.8125 30.9641 18.0122 30.9641 19.5079V21.1021H24.4722L24.4557 21.1678C24.5051 21.891 24.7516 22.4662 25.1789 22.9428C25.6062 23.403 26.1815 23.6331 26.9046 23.6331C27.562 23.6331 28.088 23.5674 28.5153 23.4359C28.9426 23.3044 29.4192 23.1072 29.9287 22.8114L30.7176 24.6193C30.2739 24.9808 29.6822 25.2767 28.9755 25.5068C28.2852 25.7697 27.4963 25.8848 26.6088 25.8848ZM26.3458 16.8618C25.8034 16.8618 25.3761 17.0754 25.0639 17.4863C24.7516 17.8972 24.5544 18.4396 24.4886 19.1298L24.5215 19.1792H28.1208V18.9162C28.1208 18.2916 27.9729 17.7986 27.6771 17.4206C27.3812 17.059 26.9375 16.8618 26.3458 16.8618Z" fill="#383836"/>
<path d="M37.2096 25.8848C35.6482 25.8848 34.3827 25.3753 33.4459 24.3727C32.5091 23.3702 32.0325 22.0882 32.0325 20.5433V20.1488C32.0325 18.5382 32.4762 17.2069 33.3637 16.155C34.2512 15.1032 35.4346 14.5937 36.9302 14.5937C38.393 14.5937 39.527 15.0374 40.3488 15.9249C41.1541 16.8125 41.565 18.0122 41.565 19.5079V21.1021H35.073L35.0566 21.1678C35.1059 21.891 35.3524 22.4662 35.7797 22.9428C36.207 23.403 36.7823 23.6331 37.5054 23.6331C38.1629 23.6331 38.6888 23.5674 39.1161 23.4359C39.5434 23.3044 40.02 23.1072 40.5295 22.8114L41.3184 24.6193C40.8747 24.9808 40.283 25.2767 39.5763 25.5068C38.8696 25.7697 38.0807 25.8848 37.2096 25.8848ZM36.9466 16.8618C36.4043 16.8618 35.977 17.0754 35.6647 17.4863C35.3524 17.8972 35.1552 18.4396 35.0894 19.1298L35.1223 19.1792H38.7217V18.9162C38.7217 18.2916 38.5737 17.7986 38.2779 17.4206C37.9656 17.059 37.5383 16.8618 36.9466 16.8618Z" fill="#383836"/>
<path d="M42.3537 23.9126L43.7672 23.6167V16.8783L42.2058 16.5824V14.8074H46.4954L46.6269 16.3688C46.9885 15.81 47.4323 15.3826 47.9582 15.0704C48.4841 14.7581 49.0758 14.6102 49.7332 14.6102C50.8344 14.6102 51.689 14.9553 52.2971 15.6456C52.9052 16.3359 53.2175 17.4206 53.2175 18.8834V23.6167L54.6309 23.9126V25.6712H49.0265V23.9126L50.2756 23.6167V18.8998C50.2756 18.1766 50.1276 17.6507 49.8318 17.3549C49.536 17.0426 49.0922 16.8947 48.5005 16.8947C48.1061 16.8947 47.761 16.9769 47.4487 17.1248C47.1364 17.2891 46.8899 17.5028 46.6762 17.7986V23.6167L47.8596 23.9126V25.6712H42.3373V23.9126H42.3537Z" fill="#383836"/>
<path d="M96.8369 16.5495V14.7744H101.127L101.242 16.2043C101.587 15.6784 102.03 15.2839 102.556 14.9881C103.082 14.7087 103.69 14.5608 104.381 14.5608C105.071 14.5608 105.679 14.7087 106.172 15.021C106.665 15.3333 107.043 15.7934 107.29 16.418C107.619 15.8427 108.062 15.3826 108.588 15.0539C109.131 14.7251 109.755 14.5608 110.478 14.5608C111.547 14.5608 112.401 14.9388 113.009 15.6784C113.634 16.418 113.946 17.552 113.946 19.0641V23.5838L115.36 23.8796V25.6547H109.739V23.8961L111.004 23.6002V19.0641C111.004 18.2423 110.873 17.6671 110.61 17.3384C110.347 17.0097 109.936 16.8617 109.41 16.8617C108.999 16.8617 108.638 16.9604 108.325 17.1411C108.013 17.3219 107.783 17.5849 107.602 17.9136C107.602 18.0451 107.602 18.1437 107.619 18.2423C107.619 18.3409 107.635 18.4231 107.635 18.5217V23.6002L108.818 23.8961V25.6547H103.526V23.8961L104.709 23.6002V19.0641C104.709 18.2587 104.578 17.6999 104.315 17.3548C104.052 17.0261 103.641 16.8617 103.115 16.8617C102.721 16.8617 102.376 16.9439 102.08 17.0918C101.784 17.2398 101.537 17.4534 101.34 17.7328V23.6002L102.606 23.8961V25.6547H97.0013V23.8961L98.4147 23.6002V16.8617L96.8369 16.5495Z" fill="#383836"/>
<path d="M120.898 25.8683C119.337 25.8683 118.071 25.3588 117.135 24.3562C116.198 23.3537 115.721 22.0717 115.721 20.5268V20.1324C115.721 18.5217 116.165 17.1904 117.052 16.1386C117.94 15.0867 119.123 14.5772 120.619 14.5772C122.082 14.5772 123.216 15.021 124.037 15.9085C124.843 16.796 125.254 17.9958 125.254 19.4914V21.0856H118.762L118.745 21.1514C118.795 21.8745 119.041 22.4497 119.468 22.9264C119.896 23.3866 120.471 23.6167 121.194 23.6167C121.852 23.6167 122.378 23.5509 122.805 23.4194C123.232 23.2879 123.709 23.0907 124.218 22.7949L125.007 24.6028C124.563 24.9643 123.972 25.2602 123.265 25.4903C122.558 25.7368 121.769 25.8683 120.898 25.8683ZM120.635 16.8453C120.093 16.8453 119.666 17.0589 119.353 17.4698C119.041 17.8807 118.844 18.4231 118.778 19.1134L118.811 19.1627H122.41V18.8997C122.41 18.2752 122.262 17.7821 121.967 17.4041C121.654 17.0261 121.227 16.8453 120.635 16.8453Z" fill="#383836"/>
<path d="M133.061 25.6547C132.978 25.4739 132.913 25.2931 132.847 25.0958C132.781 24.8986 132.732 24.7178 132.699 24.5206C132.354 24.9151 131.927 25.2438 131.433 25.4903C130.94 25.7368 130.365 25.8683 129.724 25.8683C128.656 25.8683 127.818 25.5725 127.193 24.9972C126.569 24.422 126.256 23.6331 126.256 22.6306C126.256 21.6116 126.667 20.8227 127.489 20.2639C128.311 19.7051 129.511 19.4257 131.088 19.4257H132.584V18.3574C132.584 17.8314 132.436 17.437 132.124 17.1411C131.828 16.8453 131.384 16.7138 130.793 16.7138C130.464 16.7138 130.152 16.7467 129.905 16.8289C129.642 16.911 129.428 16.9932 129.264 17.1083L129.067 18.2752H126.864L126.881 15.8592C127.423 15.4976 128.031 15.1853 128.722 14.9388C129.412 14.6923 130.168 14.5608 130.99 14.5608C132.337 14.5608 133.422 14.8895 134.277 15.5469C135.115 16.2043 135.542 17.1411 135.542 18.3574V22.8442C135.542 23.0086 135.542 23.1729 135.542 23.3208C135.542 23.4688 135.559 23.6167 135.575 23.7482L136.463 23.8632V25.6547H133.061ZM130.513 23.6988C130.957 23.6988 131.351 23.6002 131.713 23.4194C132.074 23.2222 132.354 22.9921 132.551 22.6963V21.0363H131.055C130.431 21.0363 129.954 21.1842 129.642 21.4801C129.313 21.7759 129.165 22.1211 129.165 22.5319C129.165 22.8935 129.28 23.1894 129.527 23.403C129.757 23.5838 130.086 23.6988 130.513 23.6988Z" fill="#383836"/>
<path d="M137.021 11.7504V9.97534H141.525V23.5838L142.938 23.8797V25.6547H137.169V23.8961L138.583 23.6003V12.0626L137.021 11.7504Z" fill="#383836"/>
<path d="M90.0657 16.5002C89.4411 16.6317 88.7508 16.3359 88.7508 16.3359C88.7508 16.3359 89.474 16.1387 89.852 15.8757C90.5094 15.4155 90.3944 14.8238 90.6409 14.3308C90.8874 13.8377 91.6435 13.1967 91.6435 13.1967C91.3312 13.0981 90.4601 12.8516 89.7534 13.1145C89.1782 13.3282 88.2249 14.3143 88.2249 14.3143C88.1756 14.1007 88.8001 13.0159 88.8001 13.0159C87.7318 13.3611 87.0744 14.4951 85.5624 16.1222C84.0503 17.7493 84.2476 16.2866 84.2476 16.2866C84.7406 13.509 88.5536 12.1613 89.4247 11.471C90.3122 10.7972 90.6738 8.9564 90.6738 8.9564C89.7534 8.6277 89.4576 9.05502 88.8823 9.61382C88.2906 10.1726 87.5346 9.7453 87.5346 9.7453C87.6497 9.02215 89.0631 8.23325 90.0328 7.41148C91.0025 6.58971 90.7888 4.9133 90.7888 4.9133C90.1807 4.9133 88.5372 5.80082 88.5372 5.80082C89.1289 5.30776 89.9177 3.96005 89.4904 2.38226C89.2275 1.41257 89.2768 0.541504 89.2768 0.541504C89.0138 1.06744 87.7154 1.13318 87.1237 1.92207C86.5321 2.71097 86.3677 4.3545 86.3677 4.3545C85.7432 3.87788 85.8253 2.05355 85.8253 2.05355C85.8253 2.05355 84.9707 2.48087 84.905 3.5163C84.8557 4.09154 85.1351 6.27744 85.0529 7.77306C84.9707 9.26868 84.1818 11.471 83.9682 11.8983C83.7545 12.3257 83.6888 11.7668 83.6888 11.7668C83.623 11.3231 83.9681 9.23581 83.9846 8.08533C83.9846 6.93486 82.9492 5.80082 82.9492 5.80082C82.8999 6.22814 82.6533 6.35962 82.3739 7.06634C82.111 7.78949 82.5547 8.677 82.5876 9.03858C82.6205 9.40016 82.5711 9.66312 82.3739 9.71243C82.1931 9.76174 82.111 9.56451 82.111 9.4659C81.9466 7.93741 81.3549 7.70731 81.3549 7.70731C80.9276 8.1675 80.8126 8.69344 80.8126 9.23581C78.5938 7.29643 75.7833 6.32675 72.3648 6.32675C69.1435 6.32675 66.3823 7.26356 64.0814 9.13719C61.7969 11.0108 60.6464 13.4761 60.6464 16.5495C60.6464 18.341 61.0573 19.9352 61.879 21.2994C62.7008 22.6799 63.8184 23.814 65.2812 24.7672C62.0598 25.0795 58.6084 28.12 58.6084 32.3439C58.6084 36.2555 61.5175 40.085 67.3027 40.085H80.8947C84.0832 40.085 85.1186 41.8107 85.1186 43.2077C85.1186 44.5554 84.0996 45.5415 84.0996 45.5415C86.3677 45.5415 89.5233 41.8929 89.5233 37.9319C89.5233 33.3793 86.7457 29.3198 77.3447 29.3198H66.8589C65.0346 29.3198 64.1471 28.5638 64.1471 27.3969C64.1471 26.1149 65.5934 25.4904 66.7275 25.4904H66.7768C68.6175 26.2135 70.4912 26.5587 72.4141 26.5587C75.5368 26.5587 78.2486 25.6383 80.566 23.7811C80.8126 23.5839 81.0591 23.3702 81.2892 23.1565C82.604 22.1869 83.4258 21.398 83.9353 21.4308C87.8962 21.6445 89.8849 19.9845 89.8849 19.9845C89.589 20.001 89.2768 19.7216 88.4879 19.0806C87.699 18.4396 85.3323 18.7026 85.3323 18.7026C86.2691 17.963 88.2742 18.1438 88.8001 18.1109C89.6383 18.078 90.1971 17.8972 90.7724 17.2398C91.3641 16.566 91.2819 15.8099 91.2819 15.8099C91.2819 15.8099 90.4766 16.4181 90.0657 16.5002ZM69.6858 22.5649C69.6858 22.5649 69.5215 20.0831 69.5215 16.4838C69.5215 12.8023 69.6858 10.3205 69.6858 10.3205C69.8173 8.95641 70.5733 7.65801 72.3155 7.65801C73.9919 7.65801 74.8794 9.00571 75.0109 10.3534C75.0109 10.3534 75.1917 12.8187 75.1917 16.4838C75.1917 20.0831 75.0109 22.5813 75.0109 22.5813C74.8794 24.0605 73.8933 25.2438 72.3812 25.2438C70.787 25.2438 69.8009 23.9948 69.6858 22.5649Z" fill="#1E9F38"/>
</svg>
