<svg width="30" height="30" viewBox="0 0 30 30" fill="none" xmlns="http://www.w3.org/2000/svg">
<circle opacity="0.3" cx="15" cy="15" r="14.5" stroke="#1E9F38"/>
<path d="M14.3676 13.11H15.6156V20H14.3676V13.11ZM14.9916 11.784C14.7489 11.784 14.5452 11.706 14.3806 11.55C14.2246 11.394 14.1466 11.2033 14.1466 10.978C14.1466 10.7527 14.2246 10.562 14.3806 10.406C14.5452 10.2413 14.7489 10.159 14.9916 10.159C15.2342 10.159 15.4336 10.237 15.5896 10.393C15.7542 10.5403 15.8366 10.7267 15.8366 10.952C15.8366 11.186 15.7542 11.3853 15.5896 11.55C15.4336 11.706 15.2342 11.784 14.9916 11.784Z" fill="#1E9F38"/>
</svg>
