<svg width="16" height="16" viewBox="0 0 16 16" fill="none" xmlns="http://www.w3.org/2000/svg">
<path fill-rule="evenodd" clip-rule="evenodd" d="M8 1.44C10.12 1.44 10.4 1.44 11.24 1.48C12 1.52 12.44 1.64 12.72 1.76C13.08 1.92 13.36 2.08 13.64 2.36C13.92 2.64 14.08 2.92 14.24 3.28C14.36 3.56 14.48 4 14.52 4.76C14.56 5.6 14.56 5.84 14.56 8C14.56 10.16 14.56 10.4 14.52 11.24C14.48 12 14.36 12.44 14.24 12.72C14.08 13.08 13.92 13.36 13.64 13.64C13.36 13.92 13.08 14.08 12.72 14.24C12.44 14.36 12 14.48 11.24 14.52C10.4 14.56 10.16 14.56 8 14.56C5.84 14.56 5.6 14.56 4.76 14.52C4 14.48 3.56 14.36 3.28 14.24C2.92 14.08 2.64 13.92 2.36 13.64C2.08 13.36 1.92 13.08 1.76 12.72C1.64 12.44 1.52 12 1.48 11.24C1.44 10.4 1.44 10.12 1.44 8C1.44 5.88 1.44 5.6 1.48 4.76C1.52 4 1.64 3.56 1.76 3.28C1.92 2.92 2.08 2.64 2.36 2.36C2.64 2.08 2.92 1.92 3.28 1.76C3.56 1.64 4 1.52 4.76 1.48C5.6 1.44 5.88 1.44 8 1.44ZM8 0C5.84 0 5.56 0 4.72 0.04C3.84 0.08 3.28 0.24 2.76 0.4C2.24 0.64 1.8 0.88 1.36 1.36C0.88 1.8 0.64 2.24 0.4 2.76C0.2 3.28 0.08 3.84 0.04 4.72C0 5.56 0 5.84 0 8C0 10.16 0 10.44 0.04 11.28C0.08 12.12 0.2 12.72 0.4 13.24C0.6 13.76 0.88 14.2 1.32 14.64C1.76 15.08 2.2 15.36 2.72 15.56C3.24 15.76 3.8 15.88 4.68 15.92C5.56 16 5.84 16 8 16C10.16 16 10.44 16 11.28 15.96C12.12 15.92 12.72 15.8 13.24 15.6C13.76 15.4 14.2 15.12 14.64 14.68C15.08 14.24 15.36 13.8 15.56 13.28C15.76 12.76 15.88 12.2 15.92 11.32C16 10.44 16 10.16 16 8C16 5.84 16 5.56 15.96 4.72C15.92 3.88 15.8 3.28 15.6 2.76C15.4 2.24 15.12 1.8 14.68 1.36C14.24 0.92 13.8 0.64 13.28 0.44C12.76 0.24 12.2 0.12 11.32 0.08C10.44 0 10.16 0 8 0ZM7.99995 3.88001C5.71995 3.88001 3.87995 5.72001 3.87995 8.00001C3.87995 10.28 5.71995 12.12 7.99995 12.12C10.2799 12.12 12.1199 10.28 12.1199 8.00001C12.1199 5.72001 10.2799 3.88001 7.99995 3.88001ZM7.99995 10.68C6.51995 10.68 5.31995 9.48001 5.31995 8.00001C5.31995 6.52001 6.51995 5.32001 7.99995 5.32001C9.47995 5.32001 10.6799 6.52001 10.6799 8.00001C10.6799 9.48001 9.47995 10.68 7.99995 10.68ZM13.2401 3.72003C13.2401 4.25022 12.8102 4.68003 12.2801 4.68003C11.7499 4.68003 11.3201 4.25022 11.3201 3.72003C11.3201 3.18983 11.7499 2.76003 12.2801 2.76003C12.8102 2.76003 13.2401 3.18983 13.2401 3.72003Z" fill="#1E9F38"/>
</svg>
