<svg width="15" height="15" viewBox="0 0 15 15" fill="none" xmlns="http://www.w3.org/2000/svg">
<path d="M7.4581 0C3.35196 0 0.0418996 3.35196 0.0418996 7.4162C0.0418996 8.71508 0.377095 10.014 1.04749 11.1453L0 15L3.93855 13.9525C5.02793 14.5391 6.24302 14.8743 7.5 14.8743C11.6061 14.8743 14.9162 11.5223 14.9162 7.4581C14.9162 5.48883 14.162 3.60335 12.7374 2.17877C11.3128 0.75419 9.42737 0 7.4581 0ZM7.4581 13.6173C6.32682 13.6173 5.27933 13.324 4.31564 12.7374L4.10615 12.6117L1.71788 13.2402L2.34637 10.9777L2.17877 10.7263C1.55028 9.76257 1.21508 8.58939 1.21508 7.4162C1.21508 4.02235 3.98045 1.21508 7.4162 1.21508C9.05028 1.21508 10.6006 1.84358 11.7737 3.01676C12.9469 4.18994 13.5754 5.74022 13.5754 7.3743C13.6173 10.852 10.852 13.6173 7.4581 13.6173ZM10.852 8.96648C10.6844 8.88268 9.76257 8.42179 9.59497 8.37989C9.42737 8.33799 9.30168 8.29609 9.17598 8.46369C9.05028 8.63129 8.71508 9.05028 8.58939 9.17598C8.46369 9.30168 8.37989 9.30168 8.17039 9.21788C8.00279 9.13408 7.3743 8.92458 6.66201 8.29609C6.11732 7.7933 5.74022 7.2067 5.61452 6.99721C5.48883 6.82961 5.61452 6.70391 5.69832 6.62011C5.78212 6.53631 5.86592 6.41061 5.99162 6.28492C6.07542 6.15922 6.11732 6.11732 6.15922 5.99162C6.20112 5.86592 6.20112 5.74022 6.15922 5.65642C6.11732 5.57263 5.74022 4.65084 5.57263 4.27374C5.40503 3.89665 5.27933 3.98045 5.15363 3.93855C5.02793 3.93855 4.90223 3.93855 4.81844 3.93855C4.69274 3.93855 4.48324 3.98045 4.31564 4.18994C4.14805 4.35754 3.64525 4.81844 3.64525 5.74022C3.64525 6.66201 4.31564 7.5419 4.39944 7.6676C4.48324 7.7933 5.69832 9.67877 7.5838 10.4749C8.04469 10.6844 8.37989 10.7682 8.63128 10.852C9.09218 10.9777 9.46927 10.9777 9.80447 10.9358C10.1816 10.8939 10.8939 10.4749 11.0615 10.0559C11.229 9.63687 11.229 9.25978 11.1871 9.17598C11.1453 9.13408 11.0196 9.09218 10.852 8.96648Z" fill="#1E9F38"/>
</svg>
